<svg xmlns="http://www.w3.org/2000/svg" viewBox="0 0 322.8889 124.3708"><defs><style>.a{fill:#8fb956;}.b{fill:#000333;}</style></defs><rect class="a" y="48.7119" width="322.8889" height="2.1389"/><path d="M131.03,286.0507l-11.1182-15.2051a36.2207,36.2207,0,0,1-2.1533-3.2519h-.0879q.1318,2.3291.1318,5.2295v13.2275h-8.789V254.5419h8.9648L128.6353,269q.1977.2858.4834.6812t.5712.813q.2858.4175.5381.813a4.9971,4.9971,0,0,1,.3848.7031h.0879a28.5494,28.5494,0,0,1-.1319-3.34V254.5419h8.7891v31.5088Z" transform="translate(-94.5556 -191.3146)"/><path d="M175.5249,270.2084a17.442,17.442,0,0,1-2.0435,8.4927,14.5623,14.5623,0,0,1-5.7128,5.8223,17.2581,17.2581,0,0,1-16.293.0664,14.2285,14.2285,0,0,1-5.6577-5.6475,16.644,16.644,0,0,1-2.0215-8.2285,18.1581,18.1581,0,0,1,2.0434-8.6572,14.5177,14.5177,0,0,1,5.7349-5.9434,16.683,16.683,0,0,1,8.3936-2.0986,16.2113,16.2113,0,0,1,8.0971,2.0107A13.705,13.705,0,0,1,173.58,261.76,17.9766,17.9766,0,0,1,175.5249,270.2084Zm-10.0635.2637a10.9372,10.9372,0,0,0-1.4941-6.13,4.6679,4.6679,0,0,0-4.0869-2.2412,5.1677,5.1677,0,0,0-4.4165,2.1534,10.1339,10.1339,0,0,0-1.5821,6.0864,10.0136,10.0136,0,0,0,1.5713,5.9985,5.0108,5.0108,0,0,0,4.2735,2.1533,4.8924,4.8924,0,0,0,2.9663-.9668,6.1921,6.1921,0,0,0,2.0434-2.7685A11.4542,11.4542,0,0,0,165.4614,270.4721Z" transform="translate(-94.5556 -191.3146)"/><path d="M196.332,286.0507l-2.35-6.789a8.4657,8.4657,0,0,0-1.77-3.1426,3.2269,3.2269,0,0,0-2.3613-1.1426h-.375v11.0742h-9.4912V254.5419h12.6123q6.6123,0,9.7675,2.1641a7.3532,7.3532,0,0,1,3.1524,6.4932,8.2168,8.2168,0,0,1-1.834,5.4492,10.4687,10.4687,0,0,1-5.4609,3.186v.0879a7.6247,7.6247,0,0,1,3.3281,2,12.3646,12.3646,0,0,1,2.3847,4.1094l3.0977,8.0195Zm-.9-21.5112a3.2988,3.2988,0,0,0-.9668-2.5049,4.2649,4.2649,0,0,0-3.0312-.9228h-1.957v7.207h1.7148a4.3551,4.3551,0,0,0,3.0762-1.0767A3.5282,3.5282,0,0,0,195.4316,264.54Z" transform="translate(-94.5556 -191.3146)"/><path d="M226.6113,261.9687v24.082h-9.5361v-24.082h-8.8106v-7.4268h27.2676v7.4268Z" transform="translate(-94.5556 -191.3146)"/><path d="M259.7012,286.0507V274.2954H248.8027v11.7553h-9.4922V254.5419h9.4922v11.6675h10.8985V254.5419h9.4922v31.5088Z" transform="translate(-94.5556 -191.3146)"/><path d="M311.2939,286.0507H301.209l-4.3731-17.9516a31.1394,31.1394,0,0,1-.4394-3.8233h-.0879a30.4611,30.4611,0,0,1-.6367,3.8233l-4.7246,17.9516H280.2686l-7.5147-31.5088h10.415l2.6368,18.545q.0659.3514.1982,2.0434l.1309,1.8237h.1328q.0425-.5712.2637-1.9443a18.2274,18.2274,0,0,1,.4169-2.0547l4.8565-18.4131h10.3486l4.043,18.6768.2861,1.8677.2188,1.8237h.0879l.0664-.769.2851-3.0542,2.7471-18.545h9.36Z" transform="translate(-94.5556 -191.3146)"/><path d="M322.8066,286.0507V254.5419h9.4922v31.5088Z" transform="translate(-94.5556 -191.3146)"/><path d="M360.5137,286.0507l-11.1192-15.2051a35.9958,35.9958,0,0,1-2.1523-3.2519h-.0879q.1319,2.3291.1309,5.2295v13.2275h-8.7891V254.5419h8.9648L358.1182,269q.1977.2858.4834.6812t.5713.813q.2856.4175.538.813a4.9461,4.9461,0,0,1,.3848.7031h.0879a28.5557,28.5557,0,0,1-.1318-3.34V254.5419h8.789v31.5088Z" transform="translate(-94.5556 -191.3146)"/><path d="M404.7432,269.9008a17.3875,17.3875,0,0,1-2.01,8.47,13.8573,13.8573,0,0,1-5.7461,5.6807,17.9722,17.9722,0,0,1-8.6133,1.999H375.0361V254.5419h13.0528Q404.7426,254.5419,404.7432,269.9008Zm-10.085.0879a9.0738,9.0738,0,0,0-.9336-4.1528,6.7593,6.7593,0,0,0-2.67-2.8565,7.9782,7.9782,0,0,0-4.0869-1.0107h-2.44V278.624h2.6592a6.8437,6.8437,0,0,0,5.4385-2.34A9.27,9.27,0,0,0,394.6582,269.9887Z" transform="translate(-94.5556 -191.3146)"/><path class="a" d="M239.3223,233.9554l16.6716-42.6265.28,35.3481Zm16.4093-41.2046-15.9164,40.6951,16.1837-6.9484Z" transform="translate(-94.5556 -191.3146)"/><polygon class="a" points="161.581 0.725 161.581 35.273 177.875 42.386 161.581 0.725"/><path class="a" d="M272.6777,233.958,256,226.6768V191.3146Zm-16.4046-7.46,15.91,6.9457-15.91-40.6781Z" transform="translate(-94.5556 -191.3146)"/><rect class="a" y="117.359" width="89.8519" height="2.1389"/><rect class="a" x="233.037" y="117.359" width="89.8519" height="2.1389"/><path class="b" d="M210.0234,310.158v5.293h-1.6406V301.4471h3.8477a5.075,5.075,0,0,1,3.4814,1.0938,3.9035,3.9035,0,0,1,1.2354,3.0859,4.2437,4.2437,0,0,1-1.3721,3.2617,5.2388,5.2388,0,0,1-3.7061,1.2695Zm0-7.2265v5.7422h1.7188a3.8427,3.8427,0,0,0,2.5928-.7764,2.7481,2.7481,0,0,0,.8935-2.1924q0-2.7729-3.2812-2.7734Z" transform="translate(-94.5556 -191.3146)"/><path class="b" d="M229.623,315.451H227.67l-2.3437-3.9258a8.52,8.52,0,0,0-.625-.9326,3.5549,3.5549,0,0,0-.62-.63,2.1418,2.1418,0,0,0-.6836-.3564,2.7974,2.7974,0,0,0-.8252-.1123h-1.3477v5.957H219.584V301.4471h4.18a5.944,5.944,0,0,1,1.6943.23,3.7962,3.7962,0,0,1,1.3477.6982,3.2422,3.2422,0,0,1,.8935,1.167,3.87,3.87,0,0,1,.3223,1.6358,3.9417,3.9417,0,0,1-.22,1.3427,3.5,3.5,0,0,1-.625,1.0889,3.7723,3.7723,0,0,1-.9766.8154,4.9888,4.9888,0,0,1-1.2842.5225v.0391a2.9367,2.9367,0,0,1,.61.3564,3.3437,3.3437,0,0,1,.4931.4736,6.1634,6.1634,0,0,1,.4639.62q.23.3471.5127.8056Zm-8.3984-12.5195V308.01h2.2266a3.3671,3.3671,0,0,0,1.1377-.1855,2.6315,2.6315,0,0,0,.9033-.5323,2.4107,2.4107,0,0,0,.5957-.85,2.8369,2.8369,0,0,0,.2148-1.1279,2.1939,2.1939,0,0,0-.7275-1.7529,3.1238,3.1238,0,0,0-2.1045-.63Z" transform="translate(-94.5556 -191.3146)"/><path class="b" d="M236.9961,315.6854a6.15,6.15,0,0,1-4.7705-1.9629,7.2814,7.2814,0,0,1-1.792-5.1074,7.7161,7.7161,0,0,1,1.8262-5.3907,6.3806,6.3806,0,0,1,4.9707-2.0117,6.0115,6.0115,0,0,1,4.6738,1.9532,7.3063,7.3063,0,0,1,1.7715,5.1074,7.7393,7.7393,0,0,1-1.8164,5.42A6.26,6.26,0,0,1,236.9961,315.6854Zm.1172-12.9883a4.5149,4.5149,0,0,0-3.584,1.5918,7.0787,7.0787,0,0,0-.0332,8.3447,4.3771,4.3771,0,0,0,3.5,1.5772,4.5949,4.5949,0,0,0,3.6328-1.5039,6.14,6.14,0,0,0,1.3281-4.209,6.4226,6.4226,0,0,0-1.289-4.2871A4.4194,4.4194,0,0,0,237.1133,302.6971Z" transform="translate(-94.5556 -191.3146)"/><path class="b" d="M246.43,315.451V301.4471h3.8672q7.4018,0,7.4023,6.8262a6.88,6.88,0,0,1-2.0556,5.21,7.6269,7.6269,0,0,1-5.503,1.9678Zm1.6406-12.5195v11.0351h2.09a5.93,5.93,0,0,0,4.2871-1.4746,5.5268,5.5268,0,0,0,1.5332-4.18q0-5.38-5.7227-5.3808Z" transform="translate(-94.5556 -191.3146)"/><path class="b" d="M270.6973,309.7869q0,5.8991-5.3223,5.8985-5.0976,0-5.0977-5.6738v-8.5645h1.6407v8.457q0,4.3066,3.6328,4.3067,3.5054,0,3.5058-4.16v-8.6035h1.6407Z" transform="translate(-94.5556 -191.3146)"/><path class="b" d="M283.7246,314.8651a8.2143,8.2143,0,0,1-3.8672.82,6.238,6.238,0,0,1-4.7851-1.9238,7.0974,7.0974,0,0,1-1.7969-5.0489,7.44,7.44,0,0,1,2.0215-5.43,6.8624,6.8624,0,0,1,5.1269-2.07,8.2243,8.2243,0,0,1,3.3008.5762v1.748a6.6987,6.6987,0,0,0-3.32-.84,5.0939,5.0939,0,0,0-3.9111,1.6113,6.0716,6.0716,0,0,0-1.4991,4.3067,5.7741,5.7741,0,0,0,1.4014,4.0771,4.7683,4.7683,0,0,0,3.6768,1.5186,6.8967,6.8967,0,0,0,3.6523-.9375Z" transform="translate(-94.5556 -191.3146)"/><path class="b" d="M294.8574,302.9315h-4.0429V315.451h-1.6407V302.9315h-4.0332v-1.4844h9.7168Z" transform="translate(-94.5556 -191.3146)"/><path class="b" d="M296.01,314.8846V312.951a3.755,3.755,0,0,0,.7959.5274,6.4715,6.4715,0,0,0,.9765.3955,7.7922,7.7922,0,0,0,1.03.249,5.7406,5.7406,0,0,0,.957.0879,3.7521,3.7521,0,0,0,2.2608-.5615,2.1065,2.1065,0,0,0,.498-2.6026,2.805,2.805,0,0,0-.6885-.7666,6.8374,6.8374,0,0,0-1.04-.6641q-.6006-.3178-1.2939-.6689-.7324-.3706-1.3672-.752a5.9455,5.9455,0,0,1-1.1035-.84,3.4891,3.4891,0,0,1-.7373-1.04,3.5455,3.5455,0,0,1,.1513-3.0274,3.6027,3.6027,0,0,1,1.1035-1.167,5.0063,5.0063,0,0,1,1.5577-.6836,7.1493,7.1493,0,0,1,1.7822-.2246,6.8308,6.8308,0,0,1,3.0176.4981v1.8457a5.4671,5.4671,0,0,0-3.1836-.8594,5.2137,5.2137,0,0,0-1.0743.1123,3.0513,3.0513,0,0,0-.957.3662,2.1173,2.1173,0,0,0-.6836.6543,1.7366,1.7366,0,0,0-.2637.9766,2.0073,2.0073,0,0,0,.2.9277,2.2688,2.2688,0,0,0,.5909.7129,5.9337,5.9337,0,0,0,.9521.625q.561.3033,1.294.6641.7514.3705,1.4257.7812a6.5313,6.5313,0,0,1,1.1817.9082,4.0274,4.0274,0,0,1,.8056,1.1035,3.106,3.106,0,0,1,.2979,1.3868,3.5123,3.5123,0,0,1-.4053,1.7529,3.3316,3.3316,0,0,1-1.0937,1.167,4.78,4.78,0,0,1-1.5869.6494,8.6689,8.6689,0,0,1-1.8946.2,7.6321,7.6321,0,0,1-.82-.0537q-.4878-.0543-.9961-.1563a8.1615,8.1615,0,0,1-.9619-.2539A2.9761,2.9761,0,0,1,296.01,314.8846Z" transform="translate(-94.5556 -191.3146)"/></svg>